HIERARCHY
ROOT mixamorig:Hips
{
	OFFSET 0.000000 201.639420 0.000000
	CHANNELS 6 Xposition Yposition Zposition Xrotation Yrotation Zrotation
	JOINT mixamorig:Spine
	{
		OFFSET 0.006200 19.524994 -2.481800
		CHANNELS 3 Xrotation Yrotation Zrotation
		JOINT mixamorig:Spine1
		{
			OFFSET -0.000900 22.835007 -2.825400
			CHANNELS 3 Xrotation Yrotation Zrotation
			JOINT mixamorig:Spine2
			{
				OFFSET -0.020600 26.552490 -3.193300
				CHANNELS 3 Xrotation Yrotation Zrotation
				JOINT mixamorig:Neck
				{
					OFFSET -0.060000 30.701813 1.352200
					CHANNELS 3 Xrotation Yrotation Zrotation
					JOINT mixamorig:Head
					{
						OFFSET -0.087200 22.547607 3.670900
						CHANNELS 3 Xrotation Yrotation Zrotation
						JOINT mixamorig:HeadTop_End
						{
							OFFSET -0.830600 40.355194 7.893500
							CHANNELS 3 Xrotation Yrotation Zrotation
							End Site
							{
								OFFSET 0.000000 30.592346 0.000000
							}
						}
						JOINT mixamorig:RightEye
						{
							OFFSET -6.302100 18.118591 16.197100
							CHANNELS 3 Xrotation Yrotation Zrotation
							End Site
							{
								OFFSET 0.000000 30.592346 0.000000
							}
						}
						JOINT mixamorig:LeftEye
						{
							OFFSET 6.741500 18.382690 16.401899
							CHANNELS 3 Xrotation Yrotation Zrotation
							End Site
							{
								OFFSET 0.000000 30.592346 0.000000
							}
						}
					}
				}
				JOINT mixamorig:LeftShoulder
				{
					OFFSET 11.924900 18.230499 1.425400
					CHANNELS 3 Xrotation Yrotation Zrotation
					JOINT mixamorig:LeftArm
					{
						OFFSET 25.435989 -0.697632 -5.229300
						CHANNELS 3 Xrotation Yrotation Zrotation
						JOINT mixamorig:LeftForeArm
						{
							OFFSET 54.684776 0.000000 0.000000
							CHANNELS 3 Xrotation Yrotation Zrotation
							JOINT mixamorig:LeftHand
							{
								OFFSET 55.098175 0.000000 0.000000
								CHANNELS 3 Xrotation Yrotation Zrotation
								JOINT mixamorig:LeftHandMiddle1
								{
									OFFSET 23.369751 0.000000 0.000000
									CHANNELS 3 Xrotation Yrotation Zrotation
									JOINT mixamorig:LeftHandMiddle2
									{
										OFFSET 6.378677 0.000000 0.000000
										CHANNELS 3 Xrotation Yrotation Zrotation
										JOINT mixamorig:LeftHandMiddle3
										{
											OFFSET 6.148331 0.000000 0.000000
											CHANNELS 3 Xrotation Yrotation Zrotation
											JOINT mixamorig:LeftHandMiddle4
											{
												OFFSET 6.582504 0.000000 0.000000
												CHANNELS 3 Xrotation Yrotation Zrotation
												End Site
												{
													OFFSET -1.168900 6.395691 1.028606
												}
											}
										}
									}
								}
								JOINT mixamorig:LeftHandThumb1
								{
									OFFSET 7.235672 -3.848206 5.434273
									CHANNELS 3 Xrotation Yrotation Zrotation
									JOINT mixamorig:LeftHandThumb2
									{
										OFFSET 6.568451 -3.792297 3.792300
										CHANNELS 3 Xrotation Yrotation Zrotation
										JOINT mixamorig:LeftHandThumb3
										{
											OFFSET 6.063080 -3.500519 3.500518
											CHANNELS 3 Xrotation Yrotation Zrotation
											JOINT mixamorig:LeftHandThumb4
											{
												OFFSET 4.793182 -2.767334 2.767349
												CHANNELS 3 Xrotation Yrotation Zrotation
												End Site
												{
													OFFSET 0.101639 6.054260 1.275483
												}
											}
										}
									}
								}
								JOINT mixamorig:LeftHandIndex1
								{
									OFFSET 23.101074 -0.309540 4.992809
									CHANNELS 3 Xrotation Yrotation Zrotation
									JOINT mixamorig:LeftHandIndex2
									{
										OFFSET 6.226883 0.000000 0.000000
										CHANNELS 3 Xrotation Yrotation Zrotation
										JOINT mixamorig:LeftHandIndex3
										{
											OFFSET 6.094330 0.000000 0.000000
											CHANNELS 3 Xrotation Yrotation Zrotation
											JOINT mixamorig:LeftHandIndex4
											{
												OFFSET 5.482605 0.000000 0.000000
												CHANNELS 3 Xrotation Yrotation Zrotation
												End Site
												{
													OFFSET -1.427902 5.233032 0.797164
												}
											}
										}
									}
								}
								JOINT mixamorig:LeftHandRing1
								{
									OFFSET 22.299240 0.021149 -3.964172
									CHANNELS 3 Xrotation Yrotation Zrotation
									JOINT mixamorig:LeftHandRing2
									{
										OFFSET 6.321869 0.000000 0.000000
										CHANNELS 3 Xrotation Yrotation Zrotation
										JOINT mixamorig:LeftHandRing3
										{
											OFFSET 5.899796 0.000000 0.000000
											CHANNELS 3 Xrotation Yrotation Zrotation
											JOINT mixamorig:LeftHandRing4
											{
												OFFSET 6.517899 0.000000 0.000000
												CHANNELS 3 Xrotation Yrotation Zrotation
												End Site
												{
													OFFSET -1.637299 6.232208 0.980890
												}
											}
										}
									}
								}
								JOINT mixamorig:LeftHandPinky1
								{
									OFFSET 20.463791 -0.302338 -8.562233
									CHANNELS 3 Xrotation Yrotation Zrotation
									JOINT mixamorig:LeftHandPinky2
									{
										OFFSET 6.908646 0.000000 0.000000
										CHANNELS 3 Xrotation Yrotation Zrotation
										JOINT mixamorig:LeftHandPinky3
										{
											OFFSET 4.622849 0.000000 0.000000
											CHANNELS 3 Xrotation Yrotation Zrotation
											JOINT mixamorig:LeftHandPinky4
											{
												OFFSET 5.216080 0.000000 0.000000
												CHANNELS 3 Xrotation Yrotation Zrotation
												End Site
												{
													OFFSET -0.606308 5.116241 0.814926
												}
											}
										}
									}
								}
							}
						}
					}
				}
				JOINT mixamorig:RightShoulder
				{
					OFFSET -12.001300 18.284088 1.348900
					CHANNELS 3 Xrotation Yrotation Zrotation
					JOINT mixamorig:RightArm
					{
						OFFSET -25.308500 -0.751312 -5.164599
						CHANNELS 3 Xrotation Yrotation Zrotation
						JOINT mixamorig:RightForeArm
						{
							OFFSET -54.684429 0.000000 0.000000
							CHANNELS 3 Xrotation Yrotation Zrotation
							JOINT mixamorig:RightHand
							{
								OFFSET -55.150291 0.000000 0.000000
								CHANNELS 3 Xrotation Yrotation Zrotation
								JOINT mixamorig:RightHandMiddle1
								{
									OFFSET -23.317566 0.000000 0.000000
									CHANNELS 3 Xrotation Yrotation Zrotation
									JOINT mixamorig:RightHandMiddle2
									{
										OFFSET -6.378403 0.000000 0.000000
										CHANNELS 3 Xrotation Yrotation Zrotation
										JOINT mixamorig:RightHandMiddle3
										{
											OFFSET -6.148193 0.000000 0.000000
											CHANNELS 3 Xrotation Yrotation Zrotation
											JOINT mixamorig:RightHandMiddle4
											{
												OFFSET -6.583389 0.000000 0.000000
												CHANNELS 3 Xrotation Yrotation Zrotation
												End Site
												{
													OFFSET 1.171692 6.395905 1.029786
												}
											}
										}
									}
								}
								JOINT mixamorig:RightHandThumb1
								{
									OFFSET -7.190521 -3.860474 5.435846
									CHANNELS 3 Xrotation Yrotation Zrotation
									JOINT mixamorig:RightHandThumb2
									{
										OFFSET -6.567429 -3.791718 3.791708
										CHANNELS 3 Xrotation Yrotation Zrotation
										JOINT mixamorig:RightHandThumb3
										{
											OFFSET -6.062469 -3.500153 3.500166
											CHANNELS 3 Xrotation Yrotation Zrotation
											JOINT mixamorig:RightHandThumb4
											{
												OFFSET -4.792618 -2.767029 2.767022
												CHANNELS 3 Xrotation Yrotation Zrotation
												End Site
												{
													OFFSET -0.100327 6.053253 1.276754
												}
											}
										}
									}
								}
								JOINT mixamorig:RightHandIndex1
								{
									OFFSET -23.048981 -0.310791 4.992554
									CHANNELS 3 Xrotation Yrotation Zrotation
									JOINT mixamorig:RightHandIndex2
									{
										OFFSET -6.227539 0.000000 0.000000
										CHANNELS 3 Xrotation Yrotation Zrotation
										JOINT mixamorig:RightHandIndex3
										{
											OFFSET -6.095047 0.000000 0.000000
											CHANNELS 3 Xrotation Yrotation Zrotation
											JOINT mixamorig:RightHandIndex4
											{
												OFFSET -5.484772 0.000000 0.000000
												CHANNELS 3 Xrotation Yrotation Zrotation
												End Site
												{
													OFFSET 1.420593 5.237305 0.797056
												}
											}
										}
									}
								}
								JOINT mixamorig:RightHandRing1
								{
									OFFSET -22.246323 0.020569 -3.963762
									CHANNELS 3 Xrotation Yrotation Zrotation
									JOINT mixamorig:RightHandRing2
									{
										OFFSET -6.322128 0.000000 0.000000
										CHANNELS 3 Xrotation Yrotation Zrotation
										JOINT mixamorig:RightHandRing3
										{
											OFFSET -5.900024 0.000000 0.000000
											CHANNELS 3 Xrotation Yrotation Zrotation
											JOINT mixamorig:RightHandRing4
											{
												OFFSET -6.518356 0.000000 0.000000
												CHANNELS 3 Xrotation Yrotation Zrotation
												End Site
												{
													OFFSET 1.636398 6.232697 0.982186
												}
											}
										}
									}
								}
								JOINT mixamorig:RightHandPinky1
								{
									OFFSET -20.411011 -0.303314 -8.561701
									CHANNELS 3 Xrotation Yrotation Zrotation
									JOINT mixamorig:RightHandPinky2
									{
										OFFSET -6.907349 0.000000 0.000000
										CHANNELS 3 Xrotation Yrotation Zrotation
										JOINT mixamorig:RightHandPinky3
										{
											OFFSET -4.623840 0.000000 0.000000
											CHANNELS 3 Xrotation Yrotation Zrotation
											JOINT mixamorig:RightHandPinky4
											{
												OFFSET -5.218353 0.000000 0.000000
												CHANNELS 3 Xrotation Yrotation Zrotation
												End Site
												{
													OFFSET 0.602097 5.118835 0.816273
												}
											}
										}
									}
								}
							}
						}
					}
				}
			}
		}
	}
	JOINT mixamorig:LeftUpLeg
	{
		OFFSET 18.168400 -13.561905 -0.039000
		CHANNELS 3 Xrotation Yrotation Zrotation
		JOINT mixamorig:LeftLeg
		{
			OFFSET 0.577358 -80.825211 -3.695000
			CHANNELS 3 Xrotation Yrotation Zrotation
			JOINT mixamorig:LeftFoot
			{
				OFFSET -0.577356 -83.370262 -6.520700
				CHANNELS 3 Xrotation Yrotation Zrotation
				JOINT mixamorig:LeftToeBase
				{
					OFFSET 0.750401 -20.798306 25.135401
					CHANNELS 3 Xrotation Yrotation Zrotation
					JOINT mixamorig:LeftToe_End
					{
						OFFSET -0.000500 0.001200 19.917799
						CHANNELS 3 Xrotation Yrotation Zrotation
						End Site
						{
							OFFSET 0.000000 19.917805 0.000000
						}
					}
				}
			}
		}
	}
	JOINT mixamorig:RightUpLeg
	{
		OFFSET -18.162500 -13.585098 -0.041000
		CHANNELS 3 Xrotation Yrotation Zrotation
		JOINT mixamorig:RightLeg
		{
			OFFSET -0.595024 -80.945297 -3.631900
			CHANNELS 3 Xrotation Yrotation Zrotation
			JOINT mixamorig:RightFoot
			{
				OFFSET 0.595024 -83.218193 -6.561200
				CHANNELS 3 Xrotation Yrotation Zrotation
				JOINT mixamorig:RightToeBase
				{
					OFFSET -0.753601 -20.807106 25.115000
					CHANNELS 3 Xrotation Yrotation Zrotation
					JOINT mixamorig:RightToe_End
					{
						OFFSET 0.000299 0.001700 19.918200
						CHANNELS 3 Xrotation Yrotation Zrotation
						End Site
						{
							OFFSET 0.000000 19.918203 0.000000
						}
					}
				}
			}
		}
	}
}
MOTION
Frames: 4
Frame Time: 0.033333
-0.012694 173.029327 -0.641720 -5.398706 -46.251999 -0.056134 9.475547 7.180808 -1.804159 2.187715 0.989903 -0.915632 2.202828 0.982773 -0.894153 0.084671 13.220541 4.538636 8.920986 20.138114 -4.130324 0.000000 -0.000000 0.000000 0.000000 -0.000000 0.000000 0.000000 -0.000000 0.000000 1.117179 3.546352 -8.633310 -53.486921 4.935650 -51.502977 0.000146 -106.357923 0.000125 1.988479 -7.706329 -15.869190 -0.461476 3.841591 -39.722700 6.450745 5.820347 -95.892871 2.182884 4.561567 -51.127709 0.000001 -0.000005 0.000000 -6.141212 -11.690802 -6.761703 9.914099 42.595529 3.409846 -0.422800 8.108106 27.509109 0.000003 -0.000003 0.000000 0.255314 3.378217 -45.814351 5.654085 5.847749 -88.067462 2.162137 4.544811 -50.866345 -0.000002 -0.000001 -0.000001 0.469731 4.966835 -39.799447 8.181047 5.368620 -113.503011 3.200483 5.218112 -63.022968 -0.000002 0.000002 0.000001 -3.762423 9.063696 -45.253821 5.342527 5.828996 -85.005324 8.716856 5.103339 -119.369153 0.000000 -0.000000 -0.000000 3.036129 13.027197 -5.371408 -48.713705 27.172840 83.457050 0.000223 105.988301 -0.000242 -8.345378 17.548112 8.775691 -0.761624 -2.932909 39.031072 5.133907 -4.632770 95.881663 1.739745 -3.631693 51.181346 0.000000 -0.000002 -0.000001 -7.341103 13.749655 7.412328 9.855784 -44.489083 -3.903264 -0.115794 -14.513078 -28.973874 0.000001 -0.000002 0.000000 -0.124377 -2.384784 45.108881 4.500575 -4.654519 88.071164 1.723233 -3.618373 50.920126 -0.000000 0.000001 0.000001 0.154758 -4.068825 39.122664 6.509727 -4.273607 113.462850 2.549576 -4.153902 63.067344 -0.000000 -0.000002 0.000002 -4.198868 -8.025508 44.637762 4.252907 -4.639625 85.014784 6.935965 -4.062624 119.322326 0.000002 0.000000 0.000001 -34.130824 7.615473 16.986781 59.306826 -6.173494 4.298883 -22.400428 -8.372804 -14.231632 -1.594038 -0.000003 -0.000001 -0.000000 -0.000002 -0.000000 -27.091425 -9.870318 -27.856913 58.168678 -9.793229 -7.732342 -23.346169 -5.496050 20.853090 -0.012999 0.000016 -0.000007 -0.000000 0.000001 -0.000000 
0.190194 171.526123 0.778698 -6.471075 -45.977036 -0.734260 9.806506 7.207462 -1.788252 2.576655 1.048733 -0.839524 2.589037 1.048304 -0.811721 0.061243 13.103418 4.939976 9.173736 19.779608 -3.670265 0.000000 0.000000 0.000002 0.000000 0.000000 0.000002 0.000000 0.000000 0.000002 1.122118 3.386949 -8.182741 -49.524015 6.462720 -54.545331 0.000061 -108.179842 0.000072 3.489404 -4.491161 -16.511740 -0.461476 3.841589 -39.722697 6.450748 5.820348 -95.892871 2.182884 4.561563 -51.127712 -0.000002 0.000002 0.000001 -6.141214 -11.690805 -6.761696 9.914096 42.595529 3.409843 -0.422804 8.108101 27.509108 -0.000001 0.000004 -0.000005 0.255315 3.378214 -45.814354 5.654090 5.847747 -88.067462 2.162138 4.544814 -50.866345 0.000001 -0.000000 -0.000002 0.469733 4.966835 -39.799444 8.181049 5.368624 -113.503018 3.200485 5.218113 -63.022968 0.000001 -0.000001 0.000001 -3.762422 9.063696 -45.253825 5.342525 5.828998 -85.005317 8.716857 5.103343 -119.369153 0.000003 0.000000 0.000000 3.042549 13.073289 -5.135834 -48.218134 26.853766 83.400831 0.000069 106.359289 -0.000077 -8.069018 17.520198 8.832726 -0.761626 -2.932910 39.031065 5.133902 -4.632773 95.881663 1.739749 -3.631695 51.181346 0.000000 -0.000000 0.000001 -7.341105 13.749658 7.412324 9.855786 -44.489079 -3.903264 -0.115798 -14.513083 -28.973878 -0.000002 -0.000003 0.000001 -0.124377 -2.384785 45.108881 4.500572 -4.654515 88.071164 1.723231 -3.618375 50.920122 -0.000000 0.000000 0.000000 0.154758 -4.068824 39.122664 6.509726 -4.273606 113.462850 2.549575 -4.153903 63.067337 0.000002 -0.000001 -0.000003 -4.198870 -8.025510 44.637755 4.252910 -4.639626 85.014791 6.935965 -4.062624 119.322326 0.000001 0.000000 0.000000 -34.548248 7.025372 16.604777 62.247079 -5.944743 4.196734 -22.839150 -7.901330 -13.669726 -2.401806 -0.000032 0.000148 -0.000000 0.000000 0.000000 -26.882918 -10.127596 -29.409972 59.599302 -8.093251 -7.418718 -24.047117 -6.023464 21.271598 -0.755463 -0.000014 -0.000006 -0.000000 0.000000 -0.000001 
0.510752 170.016891 3.182735 -7.654027 -46.356542 -1.395169 10.220932 7.328367 -1.799242 3.021331 1.281261 -0.847900 3.029352 1.283591 -0.807640 0.194228 13.111369 5.360705 9.641266 19.756723 -3.168420 -0.000000 0.000000 0.000000 -0.000000 0.000000 0.000000 -0.000000 0.000000 0.000000 1.012084 3.587690 -7.323534 -43.123967 6.959154 -59.082735 0.000029 -111.501445 0.000025 6.061272 -1.717744 -14.473314 -0.461477 3.841590 -39.722700 6.450748 5.820347 -95.892871 2.182884 4.561561 -51.127716 0.000001 -0.000000 0.000000 -6.141212 -11.690805 -6.761697 9.914100 42.595522 3.409846 -0.422796 8.108101 27.509111 0.000000 0.000000 -0.000000 0.255312 3.378217 -45.814354 5.654089 5.847748 -88.067462 2.162139 4.544810 -50.866348 -0.000001 0.000003 -0.000002 0.469731 4.966837 -39.799447 8.181049 5.368619 -113.503018 3.200483 5.218111 -63.022961 -0.000002 0.000001 0.000002 -3.762427 9.063695 -45.253821 5.342527 5.828996 -85.005324 8.716859 5.103342 -119.369153 -0.000002 -0.000001 -0.000000 3.079417 13.336878 -4.795340 -47.517155 26.777933 83.155791 0.000173 107.052007 -0.000183 -7.540614 17.613688 8.690416 -0.761623 -2.932910 39.031075 5.133909 -4.632770 95.881670 1.739746 -3.631694 51.181350 0.000001 0.000000 -0.000001 -7.341104 13.749654 7.412323 9.855782 -44.489079 -3.903265 -0.115801 -14.513081 -28.973881 0.000000 -0.000004 0.000001 -0.124375 -2.384786 45.108885 4.500571 -4.654517 88.071171 1.723232 -3.618374 50.920129 0.000002 0.000001 0.000001 0.154759 -4.068827 39.122664 6.509727 -4.273606 113.462850 2.549574 -4.153900 63.067337 0.000001 -0.000000 0.000001 -4.198869 -8.025509 44.637759 4.252909 -4.639627 85.014791 6.935966 -4.062622 119.322312 0.000003 -0.000000 0.000001 -35.692011 6.249790 16.549893 66.619923 -5.410917 3.345332 -21.150599 -8.071476 -13.327858 -5.757585 -0.004408 0.607160 -0.000000 -0.000001 0.000000 -26.679544 -10.292779 -31.262462 60.549736 -5.578774 -7.627644 -24.259017 -6.615231 22.223841 -2.513173 0.000028 0.000003 -0.000000 0.000000 0.000000 
1.098526 168.811356 7.065060 -8.742035 -47.821761 -1.958704 10.679207 7.591986 -1.835357 3.471333 1.756601 -1.049283 3.476604 1.752762 -0.988028 0.476783 13.228897 5.800629 10.189657 20.075750 -2.644447 -0.000001 -0.000000 0.000000 -0.000001 -0.000000 0.000000 -0.000001 -0.000000 0.000000 0.875783 3.855392 -6.607392 -34.958059 5.990217 -63.056771 0.000077 -116.163295 0.000083 8.528826 0.761187 -10.860320 -0.461473 3.841587 -39.722697 6.450749 5.820349 -95.892871 2.182882 4.561564 -51.127709 0.000001 -0.000004 0.000003 -6.141214 -11.690801 -6.761699 9.914098 42.595529 3.409844 -0.422798 8.108101 27.509109 0.000000 -0.000001 0.000002 0.255316 3.378213 -45.814348 5.654085 5.847750 -88.067462 2.162137 4.544810 -50.866345 0.000000 0.000001 -0.000000 0.469732 4.966836 -39.799447 8.181049 5.368624 -113.503018 3.200482 5.218113 -63.022968 -0.000000 0.000001 -0.000002 -3.762423 9.063694 -45.253825 5.342531 5.828996 -85.005324 8.716857 5.103341 -119.369153 0.000000 -0.000002 0.000001 3.131934 13.725581 -4.414591 -46.716930 26.900434 83.008150 -0.000138 107.959787 0.000140 -6.773091 17.875027 8.284114 -0.761624 -2.932912 39.031068 5.133907 -4.632771 95.881663 1.739747 -3.631696 51.181350 -0.000001 -0.000002 -0.000003 -7.341104 13.749655 7.412324 9.855781 -44.489079 -3.903264 -0.115793 -14.513080 -28.973878 -0.000002 0.000004 0.000003 -0.124377 -2.384786 45.108881 4.500574 -4.654518 88.071171 1.723232 -3.618378 50.920133 -0.000001 -0.000001 -0.000003 0.154759 -4.068828 39.122661 6.509728 -4.273607 113.462850 2.549575 -4.153900 63.067344 0.000000 0.000002 0.000004 -4.198871 -8.025510 44.637759 4.252908 -4.639628 85.014784 6.935965 -4.062624 119.322312 -0.000002 0.000000 0.000001 -37.823310 5.062597 17.264949 72.266659 -5.555957 1.925575 -16.098314 -9.019576 -16.583414 -11.917537 -0.136616 3.313689 0.000000 0.000001 0.000000 -26.581409 -10.205001 -33.267990 60.470704 -2.525525 -8.427315 -23.868707 -7.072308 23.217157 -3.486433 -0.000022 -0.000006 0.000000 -0.000000 0.000000 
